<svg xmlns="http://www.w3.org/2000/svg" xmlns:xlink="http://www.w3.org/1999/xlink" contentStyleType="text/css" data-diagram-type="CLASS" height="819px" preserveAspectRatio="none" style="width:1106px;height:819px;background:#1A1C1F;" version="1.1" viewBox="0 0 1106 819" width="1106px" zoomAndPan="magnify"><title>Architecture Diagram</title><defs/><g><rect fill="#1A1C1F" height="819" style="stroke:none;stroke-width:1;" width="1106" x="0" y="0"/><g class="title" data-source-line="4"><text fill="#E6E6E6" font-family="-apple-system, BlinkMacSystemFont, 'Segoe UI', Roboto, 'Helvetica Neue', Arial, 'Noto Sans', sans-serif, 'Apple Color Emoji', 'Segoe UI Emoji', 'Segoe UI Symbol', 'Noto Color Emoji'" font-size="14" font-weight="bold" lengthAdjust="spacing" textLength="154.54" x="468.73" y="23.5352">Architecture Diagram</text></g><!--cluster Characters--><g class="cluster" data-entity="Characters" data-source-line="17" data-uid="ent0003" id="cluster_Characters"><path d="M8.5,270.4183 L205.2061,270.4183 A3.75,3.75 0 0 1 207.7061,272.9183 L214.7061,292.9066 L253.5,292.9066 A2.5,2.5 0 0 1 256,295.4066 L256,521.1583 A2.5,2.5 0 0 1 253.5,523.6583 L8.5,523.6583 A2.5,2.5 0 0 1 6,521.1583 L6,272.9183 A2.5,2.5 0 0 1 8.5,270.4183" fill="#1A1C1F" style="stroke:#E6E6E6;stroke-width:1.5;"/><line style="stroke:#E6E6E6;stroke-width:1.5;" x1="6" x2="214.7061" y1="292.9066" y2="292.9066"/><text fill="#E6E6E6" font-family="-apple-system, BlinkMacSystemFont, 'Segoe UI', Roboto, 'Helvetica Neue', Arial, 'Noto Sans', sans-serif, 'Apple Color Emoji', 'Segoe UI Emoji', 'Segoe UI Symbol', 'Noto Color Emoji'" font-size="14" font-weight="bold" lengthAdjust="spacing" textLength="195.7061" x="10" y="285.9534">Character Implementations</text></g><!--cluster Item Interfaces--><g class="cluster" data-entity="Item Interfaces" data-source-line="26" data-uid="ent0009" id="cluster_Item Interfaces"><path d="M290.5,408.4183 L399.8906,408.4183 A3.75,3.75 0 0 1 402.3906,410.9183 L409.3906,430.9066 L849.5,430.9066 A2.5,2.5 0 0 1 852,433.4066 L852,521.3983 A2.5,2.5 0 0 1 849.5,523.8983 L290.5,523.8983 A2.5,2.5 0 0 1 288,521.3983 L288,410.9183 A2.5,2.5 0 0 1 290.5,408.4183" fill="#1A1C1F" style="stroke:#E6E6E6;stroke-width:1.5;"/><line style="stroke:#E6E6E6;stroke-width:1.5;" x1="288" x2="409.3906" y1="430.9066" y2="430.9066"/><text fill="#E6E6E6" font-family="-apple-system, BlinkMacSystemFont, 'Segoe UI', Roboto, 'Helvetica Neue', Arial, 'Noto Sans', sans-serif, 'Apple Color Emoji', 'Segoe UI Emoji', 'Segoe UI Symbol', 'Noto Color Emoji'" font-size="14" font-weight="bold" lengthAdjust="spacing" textLength="108.3906" x="292" y="423.9534">Item Interfaces</text></g><!--cluster Att--><g class="cluster" data-entity="Att" data-source-line="40" data-uid="ent0013" id="cluster_Att"><path d="M881.5,588.6583 L1003.585,588.6583 A3.75,3.75 0 0 1 1006.085,591.1583 L1013.085,611.1466 L1096.5,611.1466 A2.5,2.5 0 0 1 1099,613.6466 L1099,810.1583 A2.5,2.5 0 0 1 1096.5,812.6583 L881.5,812.6583 A2.5,2.5 0 0 1 879,810.1583 L879,591.1583 A2.5,2.5 0 0 1 881.5,588.6583" fill="#1A1C1F" style="stroke:#E6E6E6;stroke-width:1.5;"/><line style="stroke:#E6E6E6;stroke-width:1.5;" x1="879" x2="1013.085" y1="611.1466" y2="611.1466"/><text fill="#E6E6E6" font-family="-apple-system, BlinkMacSystemFont, 'Segoe UI', Roboto, 'Helvetica Neue', Arial, 'Noto Sans', sans-serif, 'Apple Color Emoji', 'Segoe UI Emoji', 'Segoe UI Symbol', 'Noto Color Emoji'" font-size="14" font-weight="bold" lengthAdjust="spacing" textLength="121.085" x="883" y="604.1934">Item Attackables</text></g><!--cluster Def--><g class="cluster" data-entity="Def" data-source-line="46" data-uid="ent0017" id="cluster_Def"><path d="M9.5,588.6583 L132.1318,588.6583 A3.75,3.75 0 0 1 134.6318,591.1583 L141.6318,611.1466 L261.5,611.1466 A2.5,2.5 0 0 1 264,613.6466 L264,810.1583 A2.5,2.5 0 0 1 261.5,812.6583 L9.5,812.6583 A2.5,2.5 0 0 1 7,810.1583 L7,591.1583 A2.5,2.5 0 0 1 9.5,588.6583" fill="#1A1C1F" style="stroke:#E6E6E6;stroke-width:1.5;"/><line style="stroke:#E6E6E6;stroke-width:1.5;" x1="7" x2="141.6318" y1="611.1466" y2="611.1466"/><text fill="#E6E6E6" font-family="-apple-system, BlinkMacSystemFont, 'Segoe UI', Roboto, 'Helvetica Neue', Arial, 'Noto Sans', sans-serif, 'Apple Color Emoji', 'Segoe UI Emoji', 'Segoe UI Symbol', 'Noto Color Emoji'" font-size="14" font-weight="bold" lengthAdjust="spacing" textLength="121.6318" x="11" y="604.1934">Item Defensibles</text></g><!--cluster Its--><g class="cluster" data-entity="Its" data-source-line="52" data-uid="ent0021" id="cluster_Its"><path d="M306.5,588.6583 L549.4375,588.6583 A3.75,3.75 0 0 1 551.9375,591.1583 L558.9375,611.1466 L558.5,611.1466 A2.5,2.5 0 0 1 561,613.6466 L561,810.1583 A2.5,2.5 0 0 1 558.5,812.6583 L306.5,812.6583 A2.5,2.5 0 0 1 304,810.1583 L304,591.1583 A2.5,2.5 0 0 1 306.5,588.6583" fill="#1A1C1F" style="stroke:#E6E6E6;stroke-width:1.5;"/><line style="stroke:#E6E6E6;stroke-width:1.5;" x1="304" x2="558.9375" y1="611.1466" y2="611.1466"/><text fill="#E6E6E6" font-family="-apple-system, BlinkMacSystemFont, 'Segoe UI', Roboto, 'Helvetica Neue', Arial, 'Noto Sans', sans-serif, 'Apple Color Emoji', 'Segoe UI Emoji', 'Segoe UI Symbol', 'Noto Color Emoji'" font-size="14" font-weight="bold" lengthAdjust="spacing" textLength="241.9375" x="308" y="604.1934">Item Attackables and Defensibles</text></g><!--class Archer--><g class="entity" data-entity="Archer" data-source-line="18" data-uid="ent0004" id="entity_Archer"><rect fill="#2A2D31" height="48" rx="2.5" ry="2.5" style="stroke:#E6E6E6;stroke-width:0.5;" width="76.7754" x="29.61" y="313.4183"/><ellipse cx="44.61" cy="329.4183" fill="#ADD1B2" rx="11" ry="11" style="stroke:#181818;stroke-width:1;"/><path d="M47.0831,335.5613 Q46.5021,335.8602 45.8629,336.0096 Q45.2238,336.159 44.5182,336.159 Q42.0114,336.159 40.6915,334.5071 Q39.3717,332.8553 39.3717,329.7342 Q39.3717,326.6048 40.6915,324.9529 Q42.0114,323.3011 44.5182,323.3011 Q45.2238,323.3011 45.8712,323.4505 Q46.5187,323.5999 47.0831,323.8987 L47.0831,326.6214 Q46.4523,326.0404 45.8588,325.7706 Q45.2653,325.5008 44.6344,325.5008 Q43.2897,325.5008 42.6049,326.5675 Q41.9201,327.6341 41.9201,329.7342 Q41.9201,331.826 42.6049,332.8926 Q43.2897,333.9593 44.6344,333.9593 Q45.2653,333.9593 45.8588,333.6895 Q46.4523,333.4197 47.0831,332.8387 Z " fill="#000000"/><text fill="#E6E6E6" font-family="-apple-system, BlinkMacSystemFont, 'Segoe UI', Roboto, 'Helvetica Neue', Arial, 'Noto Sans', sans-serif, 'Apple Color Emoji', 'Segoe UI Emoji', 'Segoe UI Symbol', 'Noto Color Emoji'" font-size="14" lengthAdjust="spacing" textLength="44.7754" x="58.61" y="334.7093">Archer</text><line style="stroke:#E6E6E6;stroke-width:0.5;" x1="30.61" x2="105.3854" y1="345.4183" y2="345.4183"/><line style="stroke:#E6E6E6;stroke-width:0.5;" x1="30.61" x2="105.3854" y1="353.4183" y2="353.4183"/></g><!--class Dwarf--><g class="entity" data-entity="Dwarf" data-source-line="19" data-uid="ent0005" id="entity_Dwarf"><rect fill="#2A2D31" height="48" rx="2.5" ry="2.5" style="stroke:#E6E6E6;stroke-width:0.5;" width="71.8809" x="141.06" y="313.4183"/><ellipse cx="156.06" cy="329.4183" fill="#ADD1B2" rx="11" ry="11" style="stroke:#181818;stroke-width:1;"/><path d="M158.5331,335.5613 Q157.9521,335.8602 157.3129,336.0096 Q156.6738,336.159 155.9682,336.159 Q153.4614,336.159 152.1415,334.5071 Q150.8217,332.8553 150.8217,329.7342 Q150.8217,326.6048 152.1415,324.9529 Q153.4614,323.3011 155.9682,323.3011 Q156.6738,323.3011 157.3212,323.4505 Q157.9687,323.5999 158.5331,323.8987 L158.5331,326.6214 Q157.9023,326.0404 157.3088,325.7706 Q156.7153,325.5008 156.0844,325.5008 Q154.7397,325.5008 154.0549,326.5675 Q153.3701,327.6341 153.3701,329.7342 Q153.3701,331.826 154.0549,332.8926 Q154.7397,333.9593 156.0844,333.9593 Q156.7153,333.9593 157.3088,333.6895 Q157.9023,333.4197 158.5331,332.8387 Z " fill="#000000"/><text fill="#E6E6E6" font-family="-apple-system, BlinkMacSystemFont, 'Segoe UI', Roboto, 'Helvetica Neue', Arial, 'Noto Sans', sans-serif, 'Apple Color Emoji', 'Segoe UI Emoji', 'Segoe UI Symbol', 'Noto Color Emoji'" font-size="14" lengthAdjust="spacing" textLength="39.8809" x="170.06" y="334.7093">Dwarf</text><line style="stroke:#E6E6E6;stroke-width:0.5;" x1="142.06" x2="211.9409" y1="345.4183" y2="345.4183"/><line style="stroke:#E6E6E6;stroke-width:0.5;" x1="142.06" x2="211.9409" y1="353.4183" y2="353.4183"/></g><!--class Knight--><g class="entity" data-entity="Knight" data-source-line="20" data-uid="ent0006" id="entity_Knight"><rect fill="#2A2D31" height="48" rx="2.5" ry="2.5" style="stroke:#E6E6E6;stroke-width:0.5;" width="76.5293" x="29.74" y="451.6583"/><ellipse cx="44.74" cy="467.6583" fill="#ADD1B2" rx="11" ry="11" style="stroke:#181818;stroke-width:1;"/><path d="M47.2131,473.8013 Q46.6321,474.1002 45.9929,474.2496 Q45.3538,474.399 44.6482,474.399 Q42.1414,474.399 40.8215,472.7471 Q39.5017,471.0953 39.5017,467.9742 Q39.5017,464.8448 40.8215,463.1929 Q42.1414,461.5411 44.6482,461.5411 Q45.3538,461.5411 46.0012,461.6905 Q46.6487,461.8399 47.2131,462.1387 L47.2131,464.8614 Q46.5823,464.2804 45.9888,464.0106 Q45.3953,463.7408 44.7644,463.7408 Q43.4197,463.7408 42.7349,464.8075 Q42.0501,465.8741 42.0501,467.9742 Q42.0501,470.066 42.7349,471.1326 Q43.4197,472.1993 44.7644,472.1993 Q45.3953,472.1993 45.9888,471.9295 Q46.5823,471.6597 47.2131,471.0787 Z " fill="#000000"/><text fill="#E6E6E6" font-family="-apple-system, BlinkMacSystemFont, 'Segoe UI', Roboto, 'Helvetica Neue', Arial, 'Noto Sans', sans-serif, 'Apple Color Emoji', 'Segoe UI Emoji', 'Segoe UI Symbol', 'Noto Color Emoji'" font-size="14" lengthAdjust="spacing" textLength="44.5293" x="58.74" y="472.9493">Knight</text><line style="stroke:#E6E6E6;stroke-width:0.5;" x1="30.74" x2="105.2693" y1="483.6583" y2="483.6583"/><line style="stroke:#E6E6E6;stroke-width:0.5;" x1="30.74" x2="105.2693" y1="491.6583" y2="491.6583"/></g><!--class Wizard--><g class="entity" data-entity="Wizard" data-source-line="21" data-uid="ent0007" id="entity_Wizard"><rect fill="#2A2D31" height="48" rx="2.5" ry="2.5" style="stroke:#E6E6E6;stroke-width:0.5;" width="78.3203" x="140.84" y="451.6583"/><ellipse cx="155.84" cy="467.6583" fill="#ADD1B2" rx="11" ry="11" style="stroke:#181818;stroke-width:1;"/><path d="M158.3131,473.8013 Q157.7321,474.1002 157.0929,474.2496 Q156.4538,474.399 155.7482,474.399 Q153.2414,474.399 151.9215,472.7471 Q150.6017,471.0953 150.6017,467.9742 Q150.6017,464.8448 151.9215,463.1929 Q153.2414,461.5411 155.7482,461.5411 Q156.4538,461.5411 157.1012,461.6905 Q157.7487,461.8399 158.3131,462.1387 L158.3131,464.8614 Q157.6823,464.2804 157.0888,464.0106 Q156.4953,463.7408 155.8644,463.7408 Q154.5197,463.7408 153.8349,464.8075 Q153.1501,465.8741 153.1501,467.9742 Q153.1501,470.066 153.8349,471.1326 Q154.5197,472.1993 155.8644,472.1993 Q156.4953,472.1993 157.0888,471.9295 Q157.6823,471.6597 158.3131,471.0787 Z " fill="#000000"/><text fill="#E6E6E6" font-family="-apple-system, BlinkMacSystemFont, 'Segoe UI', Roboto, 'Helvetica Neue', Arial, 'Noto Sans', sans-serif, 'Apple Color Emoji', 'Segoe UI Emoji', 'Segoe UI Symbol', 'Noto Color Emoji'" font-size="14" lengthAdjust="spacing" textLength="46.3203" x="169.84" y="472.9493">Wizard</text><line style="stroke:#E6E6E6;stroke-width:0.5;" x1="141.84" x2="218.1603" y1="483.6583" y2="483.6583"/><line style="stroke:#E6E6E6;stroke-width:0.5;" x1="141.84" x2="218.1603" y1="491.6583" y2="491.6583"/></g><!--class IItem--><g class="entity" data-entity="IItem" data-source-line="27" data-uid="ent0010" id="entity_IItem"><rect fill="#2A2D31" height="64.4883" rx="2.5" ry="2.5" style="stroke:#E6E6E6;stroke-width:0.5;" width="113.3701" x="519.31" y="443.4183"/><ellipse cx="555.5488" cy="459.4183" fill="#B4A7E5" rx="11" ry="11" style="stroke:#181818;stroke-width:1;"/><path d="M551.9765,455.6834 L551.9765,453.5252 L559.3559,453.5252 L559.3559,455.6834 L556.8906,455.6834 L556.8906,463.7601 L559.3559,463.7601 L559.3559,465.9183 L551.9765,465.9183 L551.9765,463.7601 L554.4418,463.7601 L554.4418,455.6834 Z " fill="#000000"/><text fill="#E6E6E6" font-family="-apple-system, BlinkMacSystemFont, 'Segoe UI', Roboto, 'Helvetica Neue', Arial, 'Noto Sans', sans-serif, 'Apple Color Emoji', 'Segoe UI Emoji', 'Segoe UI Symbol', 'Noto Color Emoji'" font-size="14" font-style="italic" lengthAdjust="spacing" textLength="34.1729" x="574.2685" y="464.7093">IItem</text><line style="stroke:#E6E6E6;stroke-width:0.5;" x1="520.31" x2="631.6801" y1="475.4183" y2="475.4183"/><ellipse cx="530.31" cy="489.1624" fill="none" rx="3" ry="3" style="stroke:#038048;stroke-width:1;"/><text fill="#E6E6E6" font-family="-apple-system, BlinkMacSystemFont, 'Segoe UI', Roboto, 'Helvetica Neue', Arial, 'Noto Sans', sans-serif, 'Apple Color Emoji', 'Segoe UI Emoji', 'Segoe UI Symbol', 'Noto Color Emoji'" font-size="14" lengthAdjust="spacing" textLength="87.3701" x="539.31" y="492.9534">Name: string</text><line style="stroke:#E6E6E6;stroke-width:0.5;" x1="520.31" x2="631.6801" y1="499.9066" y2="499.9066"/></g><!--class IDefensible--><g class="entity" data-entity="IDefensible" data-source-line="31" data-uid="ent0011" id="entity_IDefensible"><rect fill="#2A2D31" height="64.4883" rx="2.5" ry="2.5" style="stroke:#E6E6E6;stroke-width:0.5;" width="180.4443" x="303.78" y="443.4183"/><ellipse cx="351.8537" cy="459.4183" fill="#B4A7E5" rx="11" ry="11" style="stroke:#181818;stroke-width:1;"/><path d="M348.2815,455.6834 L348.2815,453.5252 L355.6609,453.5252 L355.6609,455.6834 L353.1955,455.6834 L353.1955,463.7601 L355.6609,463.7601 L355.6609,465.9183 L348.2815,465.9183 L348.2815,463.7601 L350.7468,463.7601 L350.7468,455.6834 Z " fill="#000000"/><text fill="#E6E6E6" font-family="-apple-system, BlinkMacSystemFont, 'Segoe UI', Roboto, 'Helvetica Neue', Arial, 'Noto Sans', sans-serif, 'Apple Color Emoji', 'Segoe UI Emoji', 'Segoe UI Symbol', 'Noto Color Emoji'" font-size="14" font-style="italic" lengthAdjust="spacing" textLength="75.7969" x="372.3537" y="464.7093">IDefensible</text><line style="stroke:#E6E6E6;stroke-width:0.5;" x1="304.78" x2="483.2243" y1="475.4183" y2="475.4183"/><ellipse cx="314.78" cy="489.1624" fill="none" rx="3" ry="3" style="stroke:#038048;stroke-width:1;"/><text fill="#E6E6E6" font-family="-apple-system, BlinkMacSystemFont, 'Segoe UI', Roboto, 'Helvetica Neue', Arial, 'Noto Sans', sans-serif, 'Apple Color Emoji', 'Segoe UI Emoji', 'Segoe UI Symbol', 'Noto Color Emoji'" font-size="14" lengthAdjust="spacing" textLength="154.4443" x="323.78" y="492.9534">DefenceValue: int {get}</text><line style="stroke:#E6E6E6;stroke-width:0.5;" x1="304.78" x2="483.2243" y1="499.9066" y2="499.9066"/></g><!--class IAttackable--><g class="entity" data-entity="IAttackable" data-source-line="35" data-uid="ent0012" id="entity_IAttackable"><rect fill="#2A2D31" height="64.4883" rx="2.5" ry="2.5" style="stroke:#E6E6E6;stroke-width:0.5;" width="168.7686" x="667.62" y="443.4183"/><ellipse cx="710.128" cy="459.4183" fill="#B4A7E5" rx="11" ry="11" style="stroke:#181818;stroke-width:1;"/><path d="M706.5557,455.6834 L706.5557,453.5252 L713.9351,453.5252 L713.9351,455.6834 L711.4698,455.6834 L711.4698,463.7601 L713.9351,463.7601 L713.9351,465.9183 L706.5557,465.9183 L706.5557,463.7601 L709.0211,463.7601 L709.0211,455.6834 Z " fill="#000000"/><text fill="#E6E6E6" font-family="-apple-system, BlinkMacSystemFont, 'Segoe UI', Roboto, 'Helvetica Neue', Arial, 'Noto Sans', sans-serif, 'Apple Color Emoji', 'Segoe UI Emoji', 'Segoe UI Symbol', 'Noto Color Emoji'" font-size="14" font-style="italic" lengthAdjust="spacing" textLength="75.6396" x="730.2409" y="464.7093">IAttackable</text><line style="stroke:#E6E6E6;stroke-width:0.5;" x1="668.62" x2="835.3886" y1="475.4183" y2="475.4183"/><ellipse cx="678.62" cy="489.1624" fill="none" rx="3" ry="3" style="stroke:#038048;stroke-width:1;"/><text fill="#E6E6E6" font-family="-apple-system, BlinkMacSystemFont, 'Segoe UI', Roboto, 'Helvetica Neue', Arial, 'Noto Sans', sans-serif, 'Apple Color Emoji', 'Segoe UI Emoji', 'Segoe UI Symbol', 'Noto Color Emoji'" font-size="14" lengthAdjust="spacing" textLength="142.7686" x="687.62" y="492.9534">AttackValue: int {get}</text><line style="stroke:#E6E6E6;stroke-width:0.5;" x1="668.62" x2="835.3886" y1="499.9066" y2="499.9066"/></g><!--class Axe--><g class="entity" data-entity="Axe" data-source-line="41" data-uid="ent0014" id="entity_Axe"><rect fill="#2A2D31" height="48" rx="2.5" ry="2.5" style="stroke:#E6E6E6;stroke-width:0.5;" width="58.0449" x="921.98" y="631.6583"/><ellipse cx="936.98" cy="647.6583" fill="#ADD1B2" rx="11" ry="11" style="stroke:#181818;stroke-width:1;"/><path d="M939.4531,653.8013 Q938.8721,654.1002 938.2329,654.2496 Q937.5938,654.399 936.8882,654.399 Q934.3814,654.399 933.0615,652.7471 Q931.7417,651.0953 931.7417,647.9742 Q931.7417,644.8448 933.0615,643.1929 Q934.3814,641.5411 936.8882,641.5411 Q937.5938,641.5411 938.2412,641.6905 Q938.8887,641.8399 939.4531,642.1388 L939.4531,644.8614 Q938.8223,644.2804 938.2288,644.0106 Q937.6353,643.7408 937.0044,643.7408 Q935.6597,643.7408 934.9749,644.8075 Q934.2901,645.8741 934.2901,647.9742 Q934.2901,650.066 934.9749,651.1326 Q935.6597,652.1993 937.0044,652.1993 Q937.6353,652.1993 938.2288,651.9295 Q938.8223,651.6597 939.4531,651.0787 Z " fill="#000000"/><text fill="#E6E6E6" font-family="-apple-system, BlinkMacSystemFont, 'Segoe UI', Roboto, 'Helvetica Neue', Arial, 'Noto Sans', sans-serif, 'Apple Color Emoji', 'Segoe UI Emoji', 'Segoe UI Symbol', 'Noto Color Emoji'" font-size="14" lengthAdjust="spacing" textLength="26.0449" x="950.98" y="652.9493">Axe</text><line style="stroke:#E6E6E6;stroke-width:0.5;" x1="922.98" x2="979.0249" y1="663.6583" y2="663.6583"/><line style="stroke:#E6E6E6;stroke-width:0.5;" x1="922.98" x2="979.0249" y1="671.6583" y2="671.6583"/></g><!--class Bow--><g class="entity" data-entity="Bow" data-source-line="42" data-uid="ent0015" id="entity_Bow"><rect fill="#2A2D31" height="48" rx="2.5" ry="2.5" style="stroke:#E6E6E6;stroke-width:0.5;" width="59.4395" x="1015.28" y="631.6583"/><ellipse cx="1030.28" cy="647.6583" fill="#ADD1B2" rx="11" ry="11" style="stroke:#181818;stroke-width:1;"/><path d="M1032.7531,653.8013 Q1032.1721,654.1002 1031.5329,654.2496 Q1030.8938,654.399 1030.1882,654.399 Q1027.6814,654.399 1026.3615,652.7471 Q1025.0417,651.0953 1025.0417,647.9742 Q1025.0417,644.8448 1026.3615,643.1929 Q1027.6814,641.5411 1030.1882,641.5411 Q1030.8938,641.5411 1031.5412,641.6905 Q1032.1887,641.8399 1032.7531,642.1388 L1032.7531,644.8614 Q1032.1223,644.2804 1031.5288,644.0106 Q1030.9353,643.7408 1030.3044,643.7408 Q1028.9597,643.7408 1028.2749,644.8075 Q1027.5901,645.8741 1027.5901,647.9742 Q1027.5901,650.066 1028.2749,651.1326 Q1028.9597,652.1993 1030.3044,652.1993 Q1030.9353,652.1993 1031.5288,651.9295 Q1032.1223,651.6597 1032.7531,651.0787 Z " fill="#000000"/><text fill="#E6E6E6" font-family="-apple-system, BlinkMacSystemFont, 'Segoe UI', Roboto, 'Helvetica Neue', Arial, 'Noto Sans', sans-serif, 'Apple Color Emoji', 'Segoe UI Emoji', 'Segoe UI Symbol', 'Noto Color Emoji'" font-size="14" lengthAdjust="spacing" textLength="27.4395" x="1044.28" y="652.9493">Bow</text><line style="stroke:#E6E6E6;stroke-width:0.5;" x1="1016.28" x2="1073.7195" y1="663.6583" y2="663.6583"/><line style="stroke:#E6E6E6;stroke-width:0.5;" x1="1016.28" x2="1073.7195" y1="671.6583" y2="671.6583"/></g><!--class Sword--><g class="entity" data-entity="Sword" data-source-line="43" data-uid="ent0016" id="entity_Sword"><rect fill="#2A2D31" height="48" rx="2.5" ry="2.5" style="stroke:#E6E6E6;stroke-width:0.5;" width="73.4668" x="922.27" y="740.6583"/><ellipse cx="937.27" cy="756.6583" fill="#ADD1B2" rx="11" ry="11" style="stroke:#181818;stroke-width:1;"/><path d="M939.7431,762.8013 Q939.1621,763.1002 938.5229,763.2496 Q937.8838,763.399 937.1782,763.399 Q934.6714,763.399 933.3515,761.7471 Q932.0317,760.0953 932.0317,756.9742 Q932.0317,753.8448 933.3515,752.1929 Q934.6714,750.5411 937.1782,750.5411 Q937.8838,750.5411 938.5312,750.6905 Q939.1787,750.8399 939.7431,751.1388 L939.7431,753.8614 Q939.1123,753.2804 938.5188,753.0106 Q937.9253,752.7408 937.2944,752.7408 Q935.9497,752.7408 935.2649,753.8075 Q934.5801,754.8741 934.5801,756.9742 Q934.5801,759.066 935.2649,760.1326 Q935.9497,761.1993 937.2944,761.1993 Q937.9253,761.1993 938.5188,760.9295 Q939.1123,760.6597 939.7431,760.0787 Z " fill="#000000"/><text fill="#E6E6E6" font-family="-apple-system, BlinkMacSystemFont, 'Segoe UI', Roboto, 'Helvetica Neue', Arial, 'Noto Sans', sans-serif, 'Apple Color Emoji', 'Segoe UI Emoji', 'Segoe UI Symbol', 'Noto Color Emoji'" font-size="14" lengthAdjust="spacing" textLength="41.4668" x="951.27" y="761.9493">Sword</text><line style="stroke:#E6E6E6;stroke-width:0.5;" x1="923.27" x2="994.7368" y1="772.6583" y2="772.6583"/><line style="stroke:#E6E6E6;stroke-width:0.5;" x1="923.27" x2="994.7368" y1="780.6583" y2="780.6583"/></g><!--class Armor--><g class="entity" data-entity="Armor" data-source-line="47" data-uid="ent0018" id="entity_Armor"><rect fill="#2A2D31" height="48" rx="2.5" ry="2.5" style="stroke:#E6E6E6;stroke-width:0.5;" width="74.7861" x="30.61" y="631.6583"/><ellipse cx="45.61" cy="647.6583" fill="#ADD1B2" rx="11" ry="11" style="stroke:#181818;stroke-width:1;"/><path d="M48.0831,653.8013 Q47.5021,654.1002 46.8629,654.2496 Q46.2238,654.399 45.5182,654.399 Q43.0114,654.399 41.6915,652.7471 Q40.3717,651.0953 40.3717,647.9742 Q40.3717,644.8448 41.6915,643.1929 Q43.0114,641.5411 45.5182,641.5411 Q46.2238,641.5411 46.8712,641.6905 Q47.5187,641.8399 48.0831,642.1388 L48.0831,644.8614 Q47.4523,644.2804 46.8588,644.0106 Q46.2653,643.7408 45.6344,643.7408 Q44.2897,643.7408 43.6049,644.8075 Q42.9201,645.8741 42.9201,647.9742 Q42.9201,650.066 43.6049,651.1326 Q44.2897,652.1993 45.6344,652.1993 Q46.2653,652.1993 46.8588,651.9295 Q47.4523,651.6597 48.0831,651.0787 Z " fill="#000000"/><text fill="#E6E6E6" font-family="-apple-system, BlinkMacSystemFont, 'Segoe UI', Roboto, 'Helvetica Neue', Arial, 'Noto Sans', sans-serif, 'Apple Color Emoji', 'Segoe UI Emoji', 'Segoe UI Symbol', 'Noto Color Emoji'" font-size="14" lengthAdjust="spacing" textLength="42.7861" x="59.61" y="652.9493">Armor</text><line style="stroke:#E6E6E6;stroke-width:0.5;" x1="31.61" x2="104.3961" y1="663.6583" y2="663.6583"/><line style="stroke:#E6E6E6;stroke-width:0.5;" x1="31.61" x2="104.3961" y1="671.6583" y2="671.6583"/></g><!--class Helmet--><g class="entity" data-entity="Helmet" data-source-line="48" data-uid="ent0019" id="entity_Helmet"><rect fill="#2A2D31" height="48" rx="2.5" ry="2.5" style="stroke:#E6E6E6;stroke-width:0.5;" width="80.2412" x="140.88" y="631.6583"/><ellipse cx="155.88" cy="647.6583" fill="#ADD1B2" rx="11" ry="11" style="stroke:#181818;stroke-width:1;"/><path d="M158.3531,653.8013 Q157.7721,654.1002 157.1329,654.2496 Q156.4938,654.399 155.7882,654.399 Q153.2814,654.399 151.9615,652.7471 Q150.6417,651.0953 150.6417,647.9742 Q150.6417,644.8448 151.9615,643.1929 Q153.2814,641.5411 155.7882,641.5411 Q156.4938,641.5411 157.1412,641.6905 Q157.7887,641.8399 158.3531,642.1388 L158.3531,644.8614 Q157.7223,644.2804 157.1288,644.0106 Q156.5353,643.7408 155.9044,643.7408 Q154.5597,643.7408 153.8749,644.8075 Q153.1901,645.8741 153.1901,647.9742 Q153.1901,650.066 153.8749,651.1326 Q154.5597,652.1993 155.9044,652.1993 Q156.5353,652.1993 157.1288,651.9295 Q157.7223,651.6597 158.3531,651.0787 Z " fill="#000000"/><text fill="#E6E6E6" font-family="-apple-system, BlinkMacSystemFont, 'Segoe UI', Roboto, 'Helvetica Neue', Arial, 'Noto Sans', sans-serif, 'Apple Color Emoji', 'Segoe UI Emoji', 'Segoe UI Symbol', 'Noto Color Emoji'" font-size="14" lengthAdjust="spacing" textLength="48.2412" x="169.88" y="652.9493">Helmet</text><line style="stroke:#E6E6E6;stroke-width:0.5;" x1="141.88" x2="220.1212" y1="663.6583" y2="663.6583"/><line style="stroke:#E6E6E6;stroke-width:0.5;" x1="141.88" x2="220.1212" y1="671.6583" y2="671.6583"/></g><!--class Shield--><g class="entity" data-entity="Shield" data-source-line="49" data-uid="ent0020" id="entity_Shield"><rect fill="#2A2D31" height="48" rx="2.5" ry="2.5" style="stroke:#E6E6E6;stroke-width:0.5;" width="72.9336" x="31.53" y="740.6583"/><ellipse cx="46.53" cy="756.6583" fill="#ADD1B2" rx="11" ry="11" style="stroke:#181818;stroke-width:1;"/><path d="M49.0031,762.8013 Q48.4221,763.1002 47.7829,763.2496 Q47.1438,763.399 46.4382,763.399 Q43.9314,763.399 42.6115,761.7471 Q41.2917,760.0953 41.2917,756.9742 Q41.2917,753.8448 42.6115,752.1929 Q43.9314,750.5411 46.4382,750.5411 Q47.1438,750.5411 47.7912,750.6905 Q48.4387,750.8399 49.0031,751.1388 L49.0031,753.8614 Q48.3723,753.2804 47.7788,753.0106 Q47.1853,752.7408 46.5544,752.7408 Q45.2097,752.7408 44.5249,753.8075 Q43.8401,754.8741 43.8401,756.9742 Q43.8401,759.066 44.5249,760.1326 Q45.2097,761.1993 46.5544,761.1993 Q47.1853,761.1993 47.7788,760.9295 Q48.3723,760.6597 49.0031,760.0787 Z " fill="#000000"/><text fill="#E6E6E6" font-family="-apple-system, BlinkMacSystemFont, 'Segoe UI', Roboto, 'Helvetica Neue', Arial, 'Noto Sans', sans-serif, 'Apple Color Emoji', 'Segoe UI Emoji', 'Segoe UI Symbol', 'Noto Color Emoji'" font-size="14" lengthAdjust="spacing" textLength="40.9336" x="60.53" y="761.9493">Shield</text><line style="stroke:#E6E6E6;stroke-width:0.5;" x1="32.53" x2="103.4636" y1="772.6583" y2="772.6583"/><line style="stroke:#E6E6E6;stroke-width:0.5;" x1="32.53" x2="103.4636" y1="780.6583" y2="780.6583"/></g><!--class Staff--><g class="entity" data-entity="Staff" data-source-line="53" data-uid="ent0022" id="entity_Staff"><rect fill="#2A2D31" height="48" rx="2.5" ry="2.5" style="stroke:#E6E6E6;stroke-width:0.5;" width="62.8027" x="327.6" y="631.6583"/><ellipse cx="342.6" cy="647.6583" fill="#ADD1B2" rx="11" ry="11" style="stroke:#181818;stroke-width:1;"/><path d="M345.0731,653.8013 Q344.4921,654.1002 343.8529,654.2496 Q343.2138,654.399 342.5082,654.399 Q340.0014,654.399 338.6815,652.7471 Q337.3617,651.0953 337.3617,647.9742 Q337.3617,644.8448 338.6815,643.1929 Q340.0014,641.5411 342.5082,641.5411 Q343.2138,641.5411 343.8612,641.6905 Q344.5087,641.8399 345.0731,642.1388 L345.0731,644.8614 Q344.4423,644.2804 343.8488,644.0106 Q343.2553,643.7408 342.6244,643.7408 Q341.2797,643.7408 340.5949,644.8075 Q339.9101,645.8741 339.9101,647.9742 Q339.9101,650.066 340.5949,651.1326 Q341.2797,652.1993 342.6244,652.1993 Q343.2553,652.1993 343.8488,651.9295 Q344.4423,651.6597 345.0731,651.0787 Z " fill="#000000"/><text fill="#E6E6E6" font-family="-apple-system, BlinkMacSystemFont, 'Segoe UI', Roboto, 'Helvetica Neue', Arial, 'Noto Sans', sans-serif, 'Apple Color Emoji', 'Segoe UI Emoji', 'Segoe UI Symbol', 'Noto Color Emoji'" font-size="14" lengthAdjust="spacing" textLength="30.8027" x="356.6" y="652.9493">Staff</text><line style="stroke:#E6E6E6;stroke-width:0.5;" x1="328.6" x2="389.4027" y1="663.6583" y2="663.6583"/><line style="stroke:#E6E6E6;stroke-width:0.5;" x1="328.6" x2="389.4027" y1="671.6583" y2="671.6583"/></g><!--class Spell--><g class="entity" data-entity="Spell" data-source-line="54" data-uid="ent0023" id="entity_Spell"><rect fill="#2A2D31" height="48" rx="2.5" ry="2.5" style="stroke:#E6E6E6;stroke-width:0.5;" width="64.2451" x="425.88" y="631.6583"/><ellipse cx="440.88" cy="647.6583" fill="#ADD1B2" rx="11" ry="11" style="stroke:#181818;stroke-width:1;"/><path d="M443.3531,653.8013 Q442.7721,654.1002 442.1329,654.2496 Q441.4938,654.399 440.7882,654.399 Q438.2814,654.399 436.9615,652.7471 Q435.6417,651.0953 435.6417,647.9742 Q435.6417,644.8448 436.9615,643.1929 Q438.2814,641.5411 440.7882,641.5411 Q441.4938,641.5411 442.1412,641.6905 Q442.7887,641.8399 443.3531,642.1388 L443.3531,644.8614 Q442.7223,644.2804 442.1288,644.0106 Q441.5353,643.7408 440.9044,643.7408 Q439.5597,643.7408 438.8749,644.8075 Q438.1901,645.8741 438.1901,647.9742 Q438.1901,650.066 438.8749,651.1326 Q439.5597,652.1993 440.9044,652.1993 Q441.5353,652.1993 442.1288,651.9295 Q442.7223,651.6597 443.3531,651.0787 Z " fill="#000000"/><text fill="#E6E6E6" font-family="-apple-system, BlinkMacSystemFont, 'Segoe UI', Roboto, 'Helvetica Neue', Arial, 'Noto Sans', sans-serif, 'Apple Color Emoji', 'Segoe UI Emoji', 'Segoe UI Symbol', 'Noto Color Emoji'" font-size="14" lengthAdjust="spacing" textLength="32.2451" x="454.88" y="652.9493">Spell</text><line style="stroke:#E6E6E6;stroke-width:0.5;" x1="426.88" x2="489.1251" y1="663.6583" y2="663.6583"/><line style="stroke:#E6E6E6;stroke-width:0.5;" x1="426.88" x2="489.1251" y1="671.6583" y2="671.6583"/></g><!--class SpellsBook--><g class="entity" data-entity="SpellsBook" data-source-line="55" data-uid="ent0024" id="entity_SpellsBook"><rect fill="#2A2D31" height="48" rx="2.5" ry="2.5" style="stroke:#E6E6E6;stroke-width:0.5;" width="104.8164" x="327.59" y="740.6583"/><ellipse cx="342.59" cy="756.6583" fill="#ADD1B2" rx="11" ry="11" style="stroke:#181818;stroke-width:1;"/><path d="M345.0631,762.8013 Q344.4821,763.1002 343.8429,763.2496 Q343.2038,763.399 342.4982,763.399 Q339.9914,763.399 338.6715,761.7471 Q337.3517,760.0953 337.3517,756.9742 Q337.3517,753.8448 338.6715,752.1929 Q339.9914,750.5411 342.4982,750.5411 Q343.2038,750.5411 343.8512,750.6905 Q344.4987,750.8399 345.0631,751.1388 L345.0631,753.8614 Q344.4323,753.2804 343.8388,753.0106 Q343.2453,752.7408 342.6144,752.7408 Q341.2697,752.7408 340.5849,753.8075 Q339.9001,754.8741 339.9001,756.9742 Q339.9001,759.066 340.5849,760.1326 Q341.2697,761.1993 342.6144,761.1993 Q343.2453,761.1993 343.8388,760.9295 Q344.4323,760.6597 345.0631,760.0787 Z " fill="#000000"/><text fill="#E6E6E6" font-family="-apple-system, BlinkMacSystemFont, 'Segoe UI', Roboto, 'Helvetica Neue', Arial, 'Noto Sans', sans-serif, 'Apple Color Emoji', 'Segoe UI Emoji', 'Segoe UI Symbol', 'Noto Color Emoji'" font-size="14" lengthAdjust="spacing" textLength="72.8164" x="356.59" y="761.9493">SpellsBook</text><line style="stroke:#E6E6E6;stroke-width:0.5;" x1="328.59" x2="431.4064" y1="772.6583" y2="772.6583"/><line style="stroke:#E6E6E6;stroke-width:0.5;" x1="328.59" x2="431.4064" y1="780.6583" y2="780.6583"/></g><!--class ICharacter--><g class="entity" data-entity="ICharacter" data-source-line="6" data-uid="ent0002" id="entity_ICharacter"><rect fill="#2A2D31" height="154.9297" rx="2.5" ry="2.5" style="stroke:#E6E6E6;stroke-width:0.5;" width="230.7295" x="132.64" y="44.4883"/><ellipse cx="208.9872" cy="60.4883" fill="#B4A7E5" rx="11" ry="11" style="stroke:#181818;stroke-width:1;"/><path d="M205.4149,56.7534 L205.4149,54.5952 L212.7943,54.5952 L212.7943,56.7534 L210.329,56.7534 L210.329,64.8301 L212.7943,64.8301 L212.7943,66.9883 L205.4149,66.9883 L205.4149,64.8301 L207.8802,64.8301 L207.8802,56.7534 Z " fill="#000000"/><text fill="#E6E6E6" font-family="-apple-system, BlinkMacSystemFont, 'Segoe UI', Roboto, 'Helvetica Neue', Arial, 'Noto Sans', sans-serif, 'Apple Color Emoji', 'Segoe UI Emoji', 'Segoe UI Symbol', 'Noto Color Emoji'" font-size="14" font-style="italic" lengthAdjust="spacing" textLength="69.5352" x="229.4872" y="65.7793">ICharacter</text><line style="stroke:#E6E6E6;stroke-width:0.5;" x1="133.64" x2="362.3695" y1="76.4883" y2="76.4883"/><ellipse cx="143.64" cy="90.2324" fill="none" rx="3" ry="3" style="stroke:#038048;stroke-width:1;"/><text fill="#E6E6E6" font-family="-apple-system, BlinkMacSystemFont, 'Segoe UI', Roboto, 'Helvetica Neue', Arial, 'Noto Sans', sans-serif, 'Apple Color Emoji', 'Segoe UI Emoji', 'Segoe UI Symbol', 'Noto Color Emoji'" font-size="14" lengthAdjust="spacing" textLength="87.3701" x="152.64" y="94.0234">Name: string</text><ellipse cx="143.64" cy="106.7207" fill="none" rx="3" ry="3" style="stroke:#038048;stroke-width:1;"/><text fill="#E6E6E6" font-family="-apple-system, BlinkMacSystemFont, 'Segoe UI', Roboto, 'Helvetica Neue', Arial, 'Noto Sans', sans-serif, 'Apple Color Emoji', 'Segoe UI Emoji', 'Segoe UI Symbol', 'Noto Color Emoji'" font-size="14" lengthAdjust="spacing" textLength="70.6221" x="152.64" y="110.5117">Health: int</text><line style="stroke:#E6E6E6;stroke-width:1;" x1="133.64" x2="362.3695" y1="117.4648" y2="117.4648"/><ellipse cx="143.64" cy="131.209" fill="#84BE84" rx="3" ry="3" style="stroke:#038048;stroke-width:1;"/><text fill="#E6E6E6" font-family="-apple-system, BlinkMacSystemFont, 'Segoe UI', Roboto, 'Helvetica Neue', Arial, 'Noto Sans', sans-serif, 'Apple Color Emoji', 'Segoe UI Emoji', 'Segoe UI Symbol', 'Noto Color Emoji'" font-size="14" lengthAdjust="spacing" textLength="116.5732" x="152.64" y="135">AttackValue(): int</text><ellipse cx="143.64" cy="147.6973" fill="#84BE84" rx="3" ry="3" style="stroke:#038048;stroke-width:1;"/><text fill="#E6E6E6" font-family="-apple-system, BlinkMacSystemFont, 'Segoe UI', Roboto, 'Helvetica Neue', Arial, 'Noto Sans', sans-serif, 'Apple Color Emoji', 'Segoe UI Emoji', 'Segoe UI Symbol', 'Noto Color Emoji'" font-size="14" lengthAdjust="spacing" textLength="128.249" x="152.64" y="151.4883">DefenceValue(): int</text><line style="stroke:#E6E6E6;stroke-width:0.5;" x1="133.64" x2="362.3695" y1="158.4414" y2="158.4414"/><ellipse cx="143.64" cy="172.1855" fill="#84BE84" rx="3" ry="3" style="stroke:#038048;stroke-width:1;"/><text fill="#E6E6E6" font-family="-apple-system, BlinkMacSystemFont, 'Segoe UI', Roboto, 'Helvetica Neue', Arial, 'Noto Sans', sans-serif, 'Apple Color Emoji', 'Segoe UI Emoji', 'Segoe UI Symbol', 'Noto Color Emoji'" font-size="14" lengthAdjust="spacing" textLength="204.7295" x="152.64" y="175.9766">ReceiveAttack(int power): void</text><ellipse cx="143.64" cy="188.6738" fill="#84BE84" rx="3" ry="3" style="stroke:#038048;stroke-width:1;"/><text fill="#E6E6E6" font-family="-apple-system, BlinkMacSystemFont, 'Segoe UI', Roboto, 'Helvetica Neue', Arial, 'Noto Sans', sans-serif, 'Apple Color Emoji', 'Segoe UI Emoji', 'Segoe UI Symbol', 'Noto Color Emoji'" font-size="14" lengthAdjust="spacing" textLength="78.5723" x="152.64" y="192.4648">Cure(): void</text></g><!--reverse link ICharacter to Characters--><g class="link" data-entity-1="ICharacter" data-entity-2="Characters" data-source-line="24" data-uid="lnk8" id="link_ICharacter_Characters"><path codeLine="24" d="M248,217.7183 C248,232.7783 248,230.7045 248,246.1586 C248,253.8856 248,261.4946 248,268.8182 C248,269.276 248,292.2209 248,292.6763" fill="none" id="ICharacter-backto-Characters" style="stroke:#5AB0F6;stroke-width:1;stroke-dasharray:7,7;"/><polygon fill="none" points="248,199.7183,242,217.7183,254,217.7183,248,199.7183" style="stroke:#5AB0F6;stroke-width:1;"/><text fill="#E6E6E6" font-family="-apple-system, BlinkMacSystemFont, 'Segoe UI', Roboto, 'Helvetica Neue', Arial, 'Noto Sans', sans-serif, 'Apple Color Emoji', 'Segoe UI Emoji', 'Segoe UI Symbol', 'Noto Color Emoji'" font-size="13" lengthAdjust="spacing" textLength="74.001" x="249" y="242.9866">Implements</text></g><!--reverse link IItem to Att--><g class="link" data-entity-1="IItem" data-entity-2="Att" data-source-line="58" data-uid="lnk25" id="link_IItem_Att"><path codeLine="58" d="M617.9062,520.6651 C630.5562,532.5351 633.23,532.5383 650,539.6583 C683.71,553.9583 697.61,535.0783 732,547.6583 C751.345,554.7383 789.195,580.7683 822.6488,605.3795 C839.3756,617.6852 855.0034,629.6361 866.6695,638.6863 C869.5861,640.9488 872.255,643.03 874.6316,644.8902 C875.8198,645.8203 876.935,646.6951 877.9716,647.5096 C878.2307,647.7133 878.4849,647.9132 878.7341,648.1092" fill="none" id="IItem-backto-Att" style="stroke:#5AB0F6;stroke-width:1;stroke-dasharray:7,7;"/><polygon fill="none" points="604.78,508.3483,613.8006,525.0405,622.0118,516.2897,604.78,508.3483" style="stroke:#5AB0F6;stroke-width:1;"/><text fill="#E6E6E6" font-family="-apple-system, BlinkMacSystemFont, 'Segoe UI', Roboto, 'Helvetica Neue', Arial, 'Noto Sans', sans-serif, 'Apple Color Emoji', 'Segoe UI Emoji', 'Segoe UI Symbol', 'Noto Color Emoji'" font-size="13" lengthAdjust="spacing" textLength="74.001" x="764.21" y="561.2266">Implements</text></g><!--reverse link IAttackable to Att--><g class="link" data-entity-1="IAttackable" data-entity-2="Att" data-source-line="59" data-uid="lnk26" id="link_IAttackable_Att"><path codeLine="59" d="M820.7621,518.8134 C835.9121,529.7334 836.71,532.5483 848,547.6583 C862.915,567.6133 872.595,593.8458 878.58,615.342 C878.6735,615.6779 878.7661,616.0126 878.8578,616.3462 C878.9037,616.5129 878.9493,616.6794 878.9948,616.8455" fill="none" id="IAttackable-backto-Att" style="stroke:#5AB0F6;stroke-width:1;stroke-dasharray:7,7;"/><polygon fill="none" points="806.16,508.2883,817.2538,523.6808,824.2705,513.946,806.16,508.2883" style="stroke:#5AB0F6;stroke-width:1;"/><text fill="#E6E6E6" font-family="-apple-system, BlinkMacSystemFont, 'Segoe UI', Roboto, 'Helvetica Neue', Arial, 'Noto Sans', sans-serif, 'Apple Color Emoji', 'Segoe UI Emoji', 'Segoe UI Symbol', 'Noto Color Emoji'" font-size="13" lengthAdjust="spacing" textLength="74.001" x="859" y="561.2266">Implements</text></g><!--reverse link IItem to Def--><g class="link" data-entity-1="IItem" data-entity-2="Def" data-source-line="60" data-uid="lnk27" id="link_IItem_Def"><path codeLine="60" d="M534.672,520.7874 C521.982,532.8274 519.09,532.8683 502,539.6583 C469.74,552.4783 378.69,535.9983 346,547.6583 C317.195,557.9333 294.9425,584.0133 279.77,607.852 C275.9769,613.8117 272.6262,619.6313 269.7264,625.0289 C268.2764,627.7277 266.9392,630.3209 265.7156,632.7734 C265.4097,633.3866 265.111,633.9909 264.8193,634.5859 C264.6735,634.8834 264.5294,635.1785 264.3872,635.4713 C264.316,635.6176 264.2454,635.7634 264.1751,635.9086" fill="none" id="IItem-backto-Def" style="stroke:#5AB0F6;stroke-width:1;stroke-dasharray:7,7;"/><polygon fill="none" points="547.73,508.3983,530.5423,516.4347,538.8018,525.14,547.73,508.3983" style="stroke:#5AB0F6;stroke-width:1;"/><text fill="#E6E6E6" font-family="-apple-system, BlinkMacSystemFont, 'Segoe UI', Roboto, 'Helvetica Neue', Arial, 'Noto Sans', sans-serif, 'Apple Color Emoji', 'Segoe UI Emoji', 'Segoe UI Symbol', 'Noto Color Emoji'" font-size="13" lengthAdjust="spacing" textLength="74.001" x="347" y="561.2266">Implements</text></g><!--reverse link IDefensible to Def--><g class="link" data-entity-1="IDefensible" data-entity-2="Def" data-source-line="61" data-uid="lnk28" id="link_IDefensible_Def"><path codeLine="61" d="M306.8192,515.1301 C279.6092,526.3501 264.59,531.3783 235,539.6583 C224.8,542.5183 194.83,539.5583 188,547.6583 C157.82,583.4083 221.66,558.2983 237,572.6583 C240.3075,575.7545 243.0925,579.3033 245.433,583.1496 C246.0182,584.1111 246.5755,585.0913 247.1063,586.0876 C247.3717,586.5858 247.6305,587.088 247.8828,587.5939 C248.0089,587.8469 248.1334,610.5891 248.2563,610.8439" fill="none" id="IDefensible-backto-Def" style="stroke:#5AB0F6;stroke-width:1;stroke-dasharray:7,7;"/><polygon fill="none" points="323.46,508.2683,304.5319,509.5832,309.1065,520.677,323.46,508.2683" style="stroke:#5AB0F6;stroke-width:1;"/><text fill="#E6E6E6" font-family="-apple-system, BlinkMacSystemFont, 'Segoe UI', Roboto, 'Helvetica Neue', Arial, 'Noto Sans', sans-serif, 'Apple Color Emoji', 'Segoe UI Emoji', 'Segoe UI Symbol', 'Noto Color Emoji'" font-size="13" lengthAdjust="spacing" textLength="74.001" x="189" y="561.2266">Implements</text></g><!--reverse link IItem to Its--><g class="link" data-entity-1="IItem" data-entity-2="Its" data-source-line="62" data-uid="lnk29" id="link_IItem_Its"><path codeLine="62" d="M544.281,523.8143 C537.221,535.5843 539.59,533.9683 536,547.6583 C533.03,558.9833 531.7037,571.2145 531.392,583.2202 C531.3531,584.7209 531.33,586.218 531.3215,587.7095 C531.3204,587.8959 531.3196,588.0822 531.319,588.2685" fill="none" id="IItem-backto-Its" style="stroke:#5AB0F6;stroke-width:1;stroke-dasharray:7,7;"/><polygon fill="none" points="553.54,508.3783,539.1357,520.728,549.4263,526.9006,553.54,508.3783" style="stroke:#5AB0F6;stroke-width:1;"/><text fill="#E6E6E6" font-family="-apple-system, BlinkMacSystemFont, 'Segoe UI', Roboto, 'Helvetica Neue', Arial, 'Noto Sans', sans-serif, 'Apple Color Emoji', 'Segoe UI Emoji', 'Segoe UI Symbol', 'Noto Color Emoji'" font-size="13" lengthAdjust="spacing" textLength="74.001" x="537" y="561.2266">Implements</text></g><!--reverse link IDefensible to Its--><g class="link" data-entity-1="IDefensible" data-entity-2="Its" data-source-line="63" data-uid="lnk30" id="link_IDefensible_Its"><path codeLine="63" d="M413.0121,524.5678 C421.8621,544.0578 428.6,551.4183 449,564.6583 C470.46,578.5883 485.85,556.8983 506,572.6583 C509.7475,575.5895 513.0713,579.0133 516.0189,582.7673 C517.4928,584.6443 518.8726,586.6038 520.1643,588.6256" fill="none" id="IDefensible-backto-Its" style="stroke:#5AB0F6;stroke-width:1;stroke-dasharray:7,7;"/><polygon fill="none" points="405.57,508.1783,407.549,527.0485,418.4753,522.0871,405.57,508.1783" style="stroke:#5AB0F6;stroke-width:1;"/><text fill="#E6E6E6" font-family="-apple-system, BlinkMacSystemFont, 'Segoe UI', Roboto, 'Helvetica Neue', Arial, 'Noto Sans', sans-serif, 'Apple Color Emoji', 'Segoe UI Emoji', 'Segoe UI Symbol', 'Noto Color Emoji'" font-size="13" lengthAdjust="spacing" textLength="74.001" x="450" y="561.2266">Implements</text></g><!--reverse link IAttackable to Its--><g class="link" data-entity-1="IAttackable" data-entity-2="Its" data-source-line="64" data-uid="lnk31" id="link_IAttackable_Its"><path codeLine="64" d="M689.6824,518.6942 C672.7424,530.5242 668.53,534.0783 652,547.6583 C625.695,569.2683 597.91,595.5258 576.4738,616.6208 C571.1147,621.8945 566.1524,626.8456 561.7093,631.3208 C561.5704,631.4606 561.4321,631.6 561.2943,631.7389" fill="none" id="IAttackable-backto-Its" style="stroke:#5AB0F6;stroke-width:1;stroke-dasharray:7,7;"/><polygon fill="none" points="704.44,508.3883,686.2471,513.775,693.1177,523.6134,704.44,508.3883" style="stroke:#5AB0F6;stroke-width:1;"/><text fill="#E6E6E6" font-family="-apple-system, BlinkMacSystemFont, 'Segoe UI', Roboto, 'Helvetica Neue', Arial, 'Noto Sans', sans-serif, 'Apple Color Emoji', 'Segoe UI Emoji', 'Segoe UI Symbol', 'Noto Color Emoji'" font-size="13" lengthAdjust="spacing" textLength="74.001" x="653" y="561.2266">Implements</text></g><!--SRC=[VL9DRzim3BtxLsWzPIXituDTskPGOy0EAx0T2qQcRI7wC2Yw7jRblq-HtLY9aVh4Hpu-aa_-egpKGusYO-xzjYm9ng9Lt0txmID9Pnaj5zAPSa-3TGs1bMwGGzbhi3mOdTT0X_n49F2SSuS6ImFAbZ4i-i39CbQiKJoGx1IZv85Gx1Iq12RBL9X13KWKrLC71390yPw9yDsB7s1mApoJiksSUaRGt6r5w8kPF9yB3ymW3xz03xZvkjJlnGuRj19NbTVNcV0J9Qetd0GseInwDo85wfjJzKnw2bjlFbB7BEi35reKTylMbUbrEDeoi7BMtmdmubpruIYfmVle0z8CTYDGCyVVhMexdi5lzHSeJafy-VQlA5B9xJBJ9ojLZ4PK7yQ6HIO_4wiZOyhUS3eClkg9Fdgr3q-PTgRsHdF5Uujyl24ocGpN8idZhJMErwSj8fF90KUrsTy_U8uVtNYENqP7zLfiEMiI2pWL8-FeZ9vH6-H5iLEewq_t4s3hrOYAVJBYXQ5f5jIZrfV8FpftY7z2L8y_mUdaYzTFdRt1MBfFDrxMaiUzmLYwJ-j_thrcN6-tOlm7]--></g></svg>